<?xml version="1.0" encoding="UTF-8"?>
<svg class="svg-logo" width="733.78mm" height="122.06mm" version="1.1" viewBox="0 0 2600 432.50005" xmlns="http://www.w3.org/2000/svg" xmlns:cc="http://creativecommons.org/ns#" xmlns:dc="http://purl.org/dc/elements/1.1/" xmlns:rdf="http://www.w3.org/1999/02/22-rdf-syntax-ns#">
  <style type="text/css"><![CDATA[
    .svg-logo {
      cursor: pointer
    }
    .svg-logo>g>.default {
      fill: #343a40;
      transition: fill 0.2s ease-in-out;
    }
    .svg-logo:hover>g>.default {
      fill: #1d2124
    }
    ]]></style>
  <metadata>
    <rdf:RDF>
      <cc:Work rdf:about="">
        <dc:format>image/svg+xml</dc:format>
        <dc:type rdf:resource="http://purl.org/dc/dcmitype/StillImage"/>
        <dc:title/>
      </cc:Work>
    </rdf:RDF>
  </metadata>
  <g transform="translate(559.64 -72.005)">
    <path class="default" d="m-559.64 288.26v-216.25h238.75 238.75v216.25 216.25h-238.75-238.75v-216.25zm465 0v-203.75h-226.25-226.25v203.75 203.75h226.25 226.25v-203.75zm-412.5 46.25v-116.25h23.125 23.125v116.25 116.25h-23.125-23.125v-116.25zm93.75-46.25v-162.5h23.125 23.125v46.25 46.25h116.25 116.25v23.125 23.125h-116.25-116.25v70 70h116.25 116.25v23.125 23.125h-139.38-139.38v-162.5zm-93.75-140v-23.75h23.125 23.125v23.75 23.75h-23.125-23.125v-23.75zm641.25 183.75v-116.25h139.38 139.38v23.125 23.125h-116.25-116.25v70 70h116.25 116.25v23.125 23.125h-139.38-139.38v-116.25zm325 0v-116.25h139.38 139.38v23.125 23.125h-116.25-116.25v23.125 23.125h116.25 116.25v23.125 23.125h-116.25-116.25v23.75 23.75h116.25 116.25v23.125 23.125h-139.38-139.38v-116.25zm326.25 0v-116.25h115.62 115.63v23.125 23.125h-92.5-92.5v93.125 93.125h-23.125-23.125v-116.25zm232.5 23.125v-93.125h23.125 23.125v93.125 93.125h-23.125-23.125v-93.125zm92.5-69.375v-162.5h23.125 23.125v46.25 46.25h116.25 116.25v23.125 23.125h-116.25-116.25v70 70h116.25 116.25v23.125 23.125h-139.38-139.38v-162.5zm325 46.25v-116.25h139.38 139.38v23.125 23.125h-116.25-116.25v23.125 23.125h116.25 116.25v23.125 23.125h-116.25-116.25v23.75 23.75h116.25 116.25v23.125 23.125h-139.38-139.38v-116.25zm326.25 0v-116.25h139.38 139.38v23.125 23.125h-116.25-116.25v93.125 93.125h-23.125-23.125v-116.25zm-1813.8 0v-22.5h69.375 69.375v22.5 22.5h-69.375-69.375v-22.5z"/>
  </g>
</svg>
